<svg width="800" height="600" viewBox="0 0 800 600" xmlns="http://www.w3.org/2000/svg">
  <defs>
    <linearGradient id="morningSky" x1="0" y1="0" x2="0" y2="1">
      <stop offset="0%" stop-color="#9ad0ff" />
      <stop offset="100%" stop-color="#e0f4ff" />
    </linearGradient>
    <linearGradient id="panelCool" x1="0" y1="0" x2="1" y2="1">
      <stop offset="0%" stop-color="#08223a" />
      <stop offset="100%" stop-color="#0b73b7" />
    </linearGradient>
    <linearGradient id="delamPeel" x1="0" y1="0" x2="1" y2="1">
      <stop offset="0%" stop-color="#ffd166" />
      <stop offset="100%" stop-color="#ffe9a8" />
    </linearGradient>
  </defs>
  <rect width="800" height="600" fill="url(#morningSky)" />
  <path d="M0 360 Q240 300 460 340 T800 320 L800 600 L0 600 Z" fill="#8bc34a" />
  <path d="M0 320 Q150 260 300 300 T800 280 L800 360 L0 360 Z" fill="#5b8f33" opacity="0.6" />
  <g transform="skewX(-12) translate(140 260)">
    <polygon points="0,160 360,110 360,250 0,310" fill="#03101a" />
    <polygon points="0,160 360,110 400,130 40,195" fill="#030a12" opacity="0.9" />
    <polygon points="360,110 400,130 400,265 360,250" fill="#041623" />
    <rect x="-5" y="165" width="375" height="130" fill="url(#panelCool)" opacity="0.9" />
    <g stroke="#0e2e4b" stroke-width="3">
      <line x1="0" y1="180" x2="370" y2="140" />
      <line x1="0" y1="210" x2="370" y2="170" />
      <line x1="0" y1="240" x2="370" y2="200" />
      <line x1="0" y1="270" x2="370" y2="230" />
    </g>
    <g stroke="#1f87d1" stroke-width="5" opacity="0.75">
      <line x1="40" y1="170" x2="40" y2="285" />
      <line x1="120" y1="155" x2="120" y2="270" />
      <line x1="200" y1="140" x2="200" y2="255" />
      <line x1="280" y1="125" x2="280" y2="240" />
    </g>
    <path d="M60 180 Q180 120 300 170 Q320 180 330 210 Q340 240 310 260 Q280 280 220 285 L60 265 Z" fill="url(#delamPeel)" opacity="0.85" />
    <path d="M70 188 Q180 135 290 180 Q310 190 316 210" stroke="#fcbf49" stroke-width="5" stroke-linecap="round" opacity="0.85" />
  </g>
  <text x="40" y="80" fill="#14324a" font-size="26" font-family="'Inter',sans-serif" font-weight="600" opacity="0.9">
    Community solar farm • Sleman, Yogyakarta — Encapsulant delamination observed
  </text>
  <text x="40" y="110" fill="#14324a" font-size="18" font-family="'Inter',sans-serif" opacity="0.9">
    Moisture ingress risk • Schedule IR scan and plan panel replacement during dry season
  </text>
</svg>
