<svg width="800" height="600" viewBox="0 0 800 600" xmlns="http://www.w3.org/2000/svg">
  <defs>
    <linearGradient id="sunsetSky" x1="0" y1="0" x2="0" y2="1">
      <stop offset="0%" stop-color="#ffb347" />
      <stop offset="100%" stop-color="#ffd7a6" />
    </linearGradient>
    <linearGradient id="panelDeepBlue" x1="0" y1="0" x2="1" y2="1">
      <stop offset="0%" stop-color="#0a2f4f" />
      <stop offset="100%" stop-color="#1467a8" />
    </linearGradient>
  </defs>
  <rect width="800" height="600" fill="url(#sunsetSky)" />
  <path d="M0 360 Q200 320 400 340 T800 320 L800 600 L0 600 Z" fill="#7ac37a" />
  <path d="M0 300 Q140 260 260 280 T520 260 Q650 250 800 300 L800 360 L0 360 Z" fill="#509a56" opacity="0.7" />
  <g transform="skewX(-12) translate(150 260)">
    <polygon points="0,160 360,105 360,250 0,310" fill="#051320" />
    <polygon points="0,160 360,105 400,125 40,195" fill="#04101b" opacity="0.9" />
    <polygon points="360,105 400,125 400,265 360,250" fill="#051a28" />
    <rect x="-5" y="165" width="375" height="130" fill="url(#panelDeepBlue)" opacity="0.92" />
    <g stroke="#103a63" stroke-width="3">
      <line x1="0" y1="180" x2="370" y2="140" />
      <line x1="0" y1="210" x2="370" y2="170" />
      <line x1="0" y1="240" x2="370" y2="200" />
      <line x1="0" y1="270" x2="370" y2="230" />
    </g>
    <g stroke="#1b6fb8" stroke-width="5" opacity="0.75">
      <line x1="40" y1="170" x2="40" y2="285" />
      <line x1="120" y1="155" x2="120" y2="270" />
      <line x1="200" y1="140" x2="200" y2="255" />
      <line x1="280" y1="125" x2="280" y2="240" />
    </g>
    <g fill="#f8f4e3" opacity="0.95">
      <path d="M60 200 Q70 180 95 188 Q120 196 110 220 Q100 244 70 236 Q50 230 60 200 Z" />
      <path d="M170 220 Q185 195 210 200 Q235 205 225 228 Q215 252 190 246 Q160 240 170 220 Z" />
      <path d="M260 210 Q275 188 298 193 Q320 198 312 220 Q304 244 284 238 Q250 230 260 210 Z" />
      <circle cx="120" cy="250" r="18" />
      <ellipse cx="310" cy="235" rx="22" ry="14" />
    </g>
  </g>
  <path d="M620 220 Q640 180 660 210 T700 230" stroke="#ffffff" stroke-width="6" stroke-linecap="round" opacity="0.8" />
  <path d="M640 180 Q660 150 680 180 T720 200" stroke="#ffffff" stroke-width="6" stroke-linecap="round" opacity="0.8" />
  <text x="40" y="80" fill="#3d2a1f" font-size="26" font-family="'Inter',sans-serif" font-weight="600" opacity="0.9">
    Warehouse rooftop • Surabaya Port, East Java — Bird droppings reduce yield
  </text>
  <text x="40" y="110" fill="#3d2a1f" font-size="18" font-family="'Inter',sans-serif" opacity="0.9">
    Output loss estimated at 9% • Schedule cleaning during low-demand window
  </text>
</svg>
