<svg width="800" height="600" viewBox="0 0 800 600" xmlns="http://www.w3.org/2000/svg">
  <defs>
    <linearGradient id="sky" x1="0" y1="0" x2="0" y2="1">
      <stop offset="0%" stop-color="#89cff0" />
      <stop offset="70%" stop-color="#d0f4ff" />
    </linearGradient>
    <linearGradient id="sun" x1="0" y1="0" x2="1" y2="1">
      <stop offset="0%" stop-color="#ffe066" />
      <stop offset="100%" stop-color="#ff9f1c" />
    </linearGradient>
    <linearGradient id="riceTerraces" x1="0" y1="0" x2="0" y2="1">
      <stop offset="0%" stop-color="#81c995" />
      <stop offset="100%" stop-color="#4caf50" />
    </linearGradient>
    <linearGradient id="panelSurface" x1="0" y1="0" x2="1" y2="1">
      <stop offset="0%" stop-color="#0b4f8a" />
      <stop offset="100%" stop-color="#0f8ec7" />
    </linearGradient>
  </defs>
  <rect width="800" height="600" fill="url(#sky)" />
  <circle cx="640" cy="120" r="70" fill="url(#sun)" opacity="0.9" />
  <path d="M0 360 Q200 300 400 340 T800 320 L800 600 L0 600 Z" fill="url(#riceTerraces)" />
  <path d="M0 320 Q150 260 300 300 T800 280 L800 360 L0 360 Z" fill="#7cb342" opacity="0.7" />
  <path d="M0 420 Q220 360 450 400 T800 380 L800 600 L0 600 Z" fill="#5c913b" opacity="0.6" />
  <path d="M120 330 L160 330 L150 250" stroke="#2d703a" stroke-width="10" stroke-linecap="round" />
  <path d="M150 250 Q180 280 170 310" stroke="#2d703a" stroke-width="10" stroke-linecap="round" />
  <path d="M150 250 Q120 280 130 310" stroke="#2d703a" stroke-width="10" stroke-linecap="round" />
  <ellipse cx="150" cy="240" rx="45" ry="35" fill="#2d703a" />
  <g transform="skewX(-12) translate(140 250)">
    <polygon points="0,150 360,90 360,220 0,280" fill="#0a2740" />
    <polygon points="0,150 360,90 400,110 40,180" fill="#071b2d" opacity="0.9" />
    <polygon points="360,90 400,110 400,240 360,220" fill="#062033" />
    <g stroke="#69c0ff" stroke-width="3" opacity="0.6">
      <line x1="20" y1="170" x2="380" y2="110" />
      <line x1="10" y1="195" x2="370" y2="135" />
      <line x1="0" y1="220" x2="360" y2="160" />
      <line x1="0" y1="245" x2="360" y2="185" />
    </g>
    <g stroke="#0f8ec7" stroke-width="5" opacity="0.9">
      <line x1="40" y1="160" x2="40" y2="260" />
      <line x1="120" y1="145" x2="120" y2="245" />
      <line x1="200" y1="130" x2="200" y2="230" />
      <line x1="280" y1="115" x2="280" y2="215" />
      <line x1="360" y1="100" x2="360" y2="200" />
    </g>
    <polygon points="0,150 360,90 360,100 0,160" fill="#4fc3f7" opacity="0.3" />
  </g>
  <text x="40" y="80" fill="#ffffff" font-size="26" font-family="'Inter',sans-serif" font-weight="600" opacity="0.8">
    Cirata floating solar park • West Java, Indonesia
  </text>
  <text x="40" y="110" fill="#ffffff" font-size="18" font-family="'Inter',sans-serif" opacity="0.8">
    Midday irradiance 950 W/m² • Panel temperature 48°C • Output 4.8 kW
  </text>
</svg>
