<svg width="800" height="600" viewBox="0 0 800 600" xmlns="http://www.w3.org/2000/svg">
  <defs>
    <linearGradient id="monsoonSky" x1="0" y1="0" x2="0" y2="1">
      <stop offset="0%" stop-color="#264b75" />
      <stop offset="100%" stop-color="#6d88a6" />
    </linearGradient>
    <linearGradient id="panelRain" x1="0" y1="0" x2="1" y2="1">
      <stop offset="0%" stop-color="#09182a" />
      <stop offset="100%" stop-color="#134d7c" />
    </linearGradient>
    <linearGradient id="rainGlow" x1="0" y1="0" x2="0" y2="1">
      <stop offset="0%" stop-color="#9ad0ff" stop-opacity="0.6" />
      <stop offset="100%" stop-color="#e0f4ff" stop-opacity="0.1" />
    </linearGradient>
  </defs>
  <rect width="800" height="600" fill="url(#monsoonSky)" />
  <path d="M0 360 Q220 320 440 340 T800 320 L800 600 L0 600 Z" fill="#4e7a46" />
  <g transform="skewX(-12) translate(150 260)">
    <polygon points="0,160 360,110 360,250 0,310" fill="#040d17" />
    <polygon points="0,160 360,110 400,130 40,195" fill="#040a12" opacity="0.9" />
    <polygon points="360,110 400,130 400,265 360,250" fill="#051422" />
    <rect x="-5" y="165" width="375" height="130" fill="url(#panelRain)" opacity="0.95" />
    <g stroke="#0d273e" stroke-width="3">
      <line x1="0" y1="180" x2="370" y2="140" />
      <line x1="0" y1="210" x2="370" y2="170" />
      <line x1="0" y1="240" x2="370" y2="200" />
      <line x1="0" y1="270" x2="370" y2="230" />
    </g>
    <g stroke="#1a6fb1" stroke-width="5" opacity="0.75">
      <line x1="40" y1="170" x2="40" y2="285" />
      <line x1="120" y1="155" x2="120" y2="270" />
      <line x1="200" y1="140" x2="200" y2="255" />
      <line x1="280" y1="125" x2="280" y2="240" />
    </g>
    <rect x="-10" y="190" width="390" height="120" fill="url(#rainGlow)" opacity="0.5" />
    <g stroke="#b9e4ff" stroke-width="3" stroke-linecap="round" opacity="0.8">
      <line x1="20" y1="170" x2="10" y2="220" />
      <line x1="60" y1="165" x2="50" y2="215" />
      <line x1="100" y1="160" x2="90" y2="210" />
      <line x1="140" y1="155" x2="130" y2="205" />
      <line x1="180" y1="150" x2="170" y2="200" />
      <line x1="220" y1="145" x2="210" y2="195" />
      <line x1="260" y1="140" x2="250" y2="190" />
      <line x1="300" y1="135" x2="290" y2="185" />
      <line x1="340" y1="130" x2="330" y2="180" />
    </g>
  </g>
  <text x="40" y="80" fill="#f0f6ff" font-size="26" font-family="'Inter',sans-serif" font-weight="600" opacity="0.9">
    Monsoon downpour over Bekasi industrial rooftop, West Java
  </text>
  <text x="40" y="110" fill="#f0f6ff" font-size="18" font-family="'Inter',sans-serif" opacity="0.85">
    Heavy rainwater pooling • Inspect drainage and tilt to avoid PID risk
  </text>
</svg>
