<svg width="800" height="600" viewBox="0 0 800 600" xmlns="http://www.w3.org/2000/svg">
  <defs>
    <linearGradient id="stormSky" x1="0" y1="0" x2="0" y2="1">
      <stop offset="0%" stop-color="#4f6d7a" />
      <stop offset="100%" stop-color="#c0d6df" />
    </linearGradient>
    <linearGradient id="panelSteel" x1="0" y1="0" x2="1" y2="1">
      <stop offset="0%" stop-color="#082339" />
      <stop offset="100%" stop-color="#125f9a" />
    </linearGradient>
    <radialGradient id="cloudShade" cx="50%" cy="50%" r="50%">
      <stop offset="0%" stop-color="#2d3e4f" stop-opacity="0.55" />
      <stop offset="100%" stop-color="#2d3e4f" stop-opacity="0" />
    </radialGradient>
  </defs>
  <rect width="800" height="600" fill="url(#stormSky)" />
  <path d="M0 360 Q260 290 480 330 T800 300 L800 600 L0 600 Z" fill="#7bb661" />
  <path d="M0 330 Q180 270 320 300 T800 260 L800 360 L0 360 Z" fill="#558b2f" opacity="0.65" />
  <g transform="skewX(-12) translate(130 260)">
    <polygon points="0,160 360,110 360,250 0,310" fill="#040f1a" />
    <polygon points="0,160 360,110 400,130 40,195" fill="#040b12" opacity="0.9" />
    <polygon points="360,110 400,130 400,265 360,250" fill="#051624" />
    <rect x="-5" y="165" width="375" height="130" fill="url(#panelSteel)" opacity="0.95" />
    <g stroke="#0d304e" stroke-width="3">
      <line x1="0" y1="180" x2="370" y2="140" />
      <line x1="0" y1="210" x2="370" y2="170" />
      <line x1="0" y1="240" x2="370" y2="200" />
      <line x1="0" y1="270" x2="370" y2="230" />
    </g>
    <g stroke="#1a7ac1" stroke-width="5" opacity="0.8">
      <line x1="40" y1="170" x2="40" y2="285" />
      <line x1="120" y1="155" x2="120" y2="270" />
      <line x1="200" y1="140" x2="200" y2="255" />
      <line x1="280" y1="125" x2="280" y2="240" />
    </g>
    <ellipse cx="160" cy="230" rx="210" ry="130" fill="url(#cloudShade)" />
  </g>
  <g opacity="0.7">
    <ellipse cx="540" cy="160" rx="170" ry="90" fill="#f2f7fa" />
    <ellipse cx="650" cy="170" rx="150" ry="85" fill="#f2f7fa" />
    <ellipse cx="600" cy="120" rx="120" ry="60" fill="#f2f7fa" />
  </g>
  <text x="40" y="80" fill="#142433" font-size="26" font-family="'Inter',sans-serif" font-weight="600" opacity="0.85">
    High-rise shadow over Jakarta CBD microgrid • Afternoon clouds reduce production
  </text>
  <text x="40" y="110" fill="#142433" font-size="18" font-family="'Inter',sans-serif" opacity="0.85">
    Output drop 32% for 15 minutes • Evaluate tracker re-alignment and tree trimming
  </text>
</svg>
