<svg width="800" height="600" viewBox="0 0 800 600" xmlns="http://www.w3.org/2000/svg">
  <defs>
    <linearGradient id="noonSky" x1="0" y1="0" x2="0" y2="1">
      <stop offset="0%" stop-color="#68b2f8" />
      <stop offset="100%" stop-color="#cfe9ff" />
    </linearGradient>
    <linearGradient id="panelMidnight" x1="0" y1="0" x2="1" y2="1">
      <stop offset="0%" stop-color="#06192b" />
      <stop offset="100%" stop-color="#0c5c8c" />
    </linearGradient>
    <radialGradient id="hotspotGlow" cx="50%" cy="50%" r="50%">
      <stop offset="0%" stop-color="#ff6b6b" stop-opacity="0.95" />
      <stop offset="60%" stop-color="#ffa36c" stop-opacity="0.5" />
      <stop offset="100%" stop-color="#ffecd2" stop-opacity="0" />
    </radialGradient>
  </defs>
  <rect width="800" height="600" fill="url(#noonSky)" />
  <path d="M0 360 Q240 290 460 330 T800 300 L800 600 L0 600 Z" fill="#8ecf6b" />
  <path d="M480 330 Q520 280 620 285 Q700 290 780 330 L780 600 L480 600 Z" fill="#5f8d3d" opacity="0.6" />
  <g transform="skewX(-12) translate(140 260)">
    <polygon points="0,160 360,110 360,250 0,310" fill="#040b14" />
    <polygon points="0,160 360,110 400,130 40,195" fill="#03080f" opacity="0.9" />
    <polygon points="360,110 400,130 400,265 360,250" fill="#04121d" />
    <rect x="-5" y="165" width="375" height="130" fill="url(#panelMidnight)" opacity="0.92" />
    <g stroke="#0d304e" stroke-width="3">
      <line x1="0" y1="180" x2="370" y2="140" />
      <line x1="0" y1="210" x2="370" y2="170" />
      <line x1="0" y1="240" x2="370" y2="200" />
      <line x1="0" y1="270" x2="370" y2="230" />
    </g>
    <g stroke="#1789d4" stroke-width="5" opacity="0.8">
      <line x1="40" y1="170" x2="40" y2="285" />
      <line x1="120" y1="155" x2="120" y2="270" />
      <line x1="200" y1="140" x2="200" y2="255" />
      <line x1="280" y1="125" x2="280" y2="240" />
    </g>
    <ellipse cx="210" cy="215" rx="90" ry="70" fill="url(#hotspotGlow)" />
    <ellipse cx="140" cy="225" rx="60" ry="50" fill="url(#hotspotGlow)" opacity="0.65" />
  </g>
  <text x="40" y="80" fill="#0c2a3f" font-size="26" font-family="'Inter',sans-serif" font-weight="600" opacity="0.9">
    Industrial park, Batam Island • Thermal hotspot flagged by infrared drone pass
  </text>
  <text x="40" y="110" fill="#0c2a3f" font-size="18" font-family="'Inter',sans-serif" opacity="0.9">
    Cell temperature 68°C • Dispatch technician to inspect bypass diodes immediately
  </text>
</svg>
